<svg width="183" height="63" viewBox="0 0 183 63" fill="none" xmlns="http://www.w3.org/2000/svg">
<g clip-path="url(#clip0_1_307)">
<path d="M180.792 23.9893C180.792 23.2911 180.301 22.8256 179.494 22.8256L177.908 22.8547L177.937 26.404H178.802V25.1821H179.321L180.071 26.404H181.08L180.186 25.0367C180.371 24.9331 180.525 24.7812 180.631 24.5969C180.738 24.4126 180.793 24.2027 180.792 23.9893ZM179.321 24.4548H178.773V23.5529H179.407C179.522 23.5403 179.636 23.5726 179.728 23.643C179.819 23.7134 179.88 23.8166 179.898 23.9312V23.9602C179.895 24.0322 179.878 24.1028 179.847 24.1676C179.816 24.2325 179.772 24.29 179.718 24.3366C179.664 24.3832 179.6 24.4178 179.532 24.4382C179.463 24.4585 179.392 24.4642 179.321 24.4548ZM51.3867 40.3977C49.9158 40.3977 48.9064 39.2339 48.9064 37.5175V29.6915H54.9628V24.1639H48.9208L48.8632 17.8217H42.1723L42.23 38.943C42.23 43.2197 45.0563 46.1289 49.2092 46.1289C51.4011 46.1289 53.4776 45.8089 55.1214 45.0525V39.6703C53.9541 40.2168 52.6718 40.4665 51.3867 40.3977ZM67.364 23.8148C61.1346 23.8148 56.3471 28.7024 56.3471 35.19C56.3471 41.6195 61.1346 46.0998 67.7389 46.0998C71.4593 46.0998 74.9489 44.7616 77.0831 41.9978L71.9496 39.6412C70.9113 40.6013 69.3251 40.9795 67.912 40.9795C65.6048 40.9795 63.2976 39.7867 62.9803 37.3429H78.2944C78.5245 36.4697 78.6409 35.5699 78.6404 34.6664C78.6404 28.0041 73.8242 23.8148 67.3784 23.8148H67.364ZM62.9803 33.0663C63.1822 30.157 65.2587 28.8187 67.537 28.8187C70.1038 28.8187 72.0361 30.2734 72.0361 32.7754V33.0663H62.9803ZM35.8131 40.3977C34.3422 40.3977 33.3328 39.2339 33.3328 37.5175V29.6915H39.3892V24.1639H33.3472L33.2896 17.8217H26.5987L26.6564 38.943C26.6564 43.2197 29.4827 46.1289 33.6356 46.1289C35.8275 46.1289 37.904 45.8089 39.5478 45.0525V39.6703C38.3813 40.2195 37.0984 40.4693 35.8131 40.3977ZM12.3085 23.8148C6.56931 23.8148 0.541748 27.6259 0.541748 35.3064C0.541748 41.7068 4.81007 46.1871 10.2031 46.1871C13.289 46.1871 15.6251 44.9361 17.1536 42.7251L17.3555 45.8089H23.83V35.5683C23.83 27.7714 18.1341 23.8148 12.3085 23.8148ZM12.3085 40.2813C9.39563 40.2813 7.29031 38.0993 7.29031 35.0155C7.29031 31.9317 9.36679 29.7497 12.3085 29.7497C15.0194 29.7497 17.2689 32.1353 17.2689 35.0155C17.2689 37.8957 15.0194 40.2813 12.3085 40.2813ZM179.177 21.2255C177.071 21.2546 175.716 22.622 175.745 24.6585C175.774 26.695 177.158 28.0332 179.263 28.0041C181.311 27.975 182.695 26.6077 182.666 24.5421C182.637 22.4765 181.253 21.1964 179.177 21.2255ZM179.263 27.4223C177.619 27.4514 176.495 26.3459 176.495 24.6585C176.495 22.9711 177.562 21.8365 179.206 21.8074C180.849 21.7783 181.945 22.8838 181.974 24.6003C181.974 26.2586 180.878 27.3932 179.278 27.4223H179.263ZM146.472 24.193L141.8 37.8666L137.07 24.193H129.803L138.512 45.7798H145.03L153.74 24.193H146.472ZM163.805 23.8148C157.576 23.8148 152.788 28.7024 152.788 35.19C152.788 41.6195 157.576 46.0998 164.18 46.0998C167.9 46.0998 171.39 44.7616 173.524 41.9978L168.391 39.6412C167.352 40.6013 165.766 40.9795 164.353 40.9795C162.046 40.9795 159.739 39.7867 159.421 37.3429H174.735C174.965 36.4697 175.082 35.5699 175.081 34.6664C175.081 28.0041 170.265 23.8148 163.805 23.8148ZM168.477 33.0663H159.421C159.623 30.157 161.7 28.8187 163.978 28.8187C166.545 28.8187 168.477 30.2734 168.477 32.7754V33.0663ZM124.64 14.7087C122.275 14.7087 120.487 16.3088 120.487 18.549C120.487 20.7891 122.275 22.4474 124.64 22.4474C127.005 22.4474 128.793 20.8182 128.793 18.549C128.793 16.2798 127.034 14.7087 124.64 14.7087ZM94.2717 23.7857C92.9195 23.7636 91.5847 24.095 90.397 24.7476C89.2094 25.4001 88.2094 26.3516 87.4943 27.5096L87.2636 24.193H80.8034V45.7798H87.4943V34.4627C87.6385 31.7571 89.8015 29.6915 92.1664 29.6915C94.8197 29.6915 96.031 31.6989 96.031 34.23V45.7507H102.693V33.1826C102.693 27.7132 99.3908 23.7857 94.2717 23.7857ZM114.69 40.3977C113.22 40.3977 112.21 39.2339 112.21 37.5175V29.6915H118.267V24.1639H112.21L112.153 17.8217H105.462L105.519 38.943C105.519 43.2197 108.346 46.1289 112.499 46.1289C114.69 46.1289 116.767 45.8089 118.411 45.0525V39.6703C117.249 40.2171 115.971 40.4669 114.69 40.3977ZM121.266 24.193V45.7798H128.015V24.193C127.014 24.8618 125.84 25.2185 124.64 25.2185C123.44 25.2185 122.266 24.8618 121.266 24.193Z" fill="#131313"/>
</g>
<defs>
<clipPath id="clip0_1_307">
<rect width="182.125" height="62" fill="white" transform="translate(0.541748 0.500732)"/>
</clipPath>
</defs>
</svg>
