<svg width="42" height="43" viewBox="0 0 42 43" fill="none" xmlns="http://www.w3.org/2000/svg">
<rect y="0.5" width="42" height="42" rx="21" fill="#FBCCD2"/>
<path d="M27.1875 23.1125V26.3C27.1875 27.1205 26.5972 27.827 25.7835 27.935C24.2182 28.1427 22.6215 28.25 21 28.25C19.3785 28.25 17.7817 28.1427 16.2165 27.935C15.4027 27.827 14.8125 27.1205 14.8125 26.3V23.1125M27.1875 23.1125C27.3656 22.9577 27.5081 22.7663 27.6052 22.5512C27.7023 22.3362 27.7517 22.1027 27.75 21.8668V19.0295C27.75 18.2188 27.174 17.5183 26.3722 17.3983C25.5227 17.2711 24.6689 17.1743 23.8125 17.108M27.1875 23.1125C27.042 23.2362 26.8725 23.3337 26.6827 23.3975C24.8499 24.0056 22.9311 24.3146 21 24.3125C19.014 24.3125 17.1037 23.9907 15.3172 23.3975C15.1322 23.3359 14.9608 23.2392 14.8125 23.1125M14.8125 23.1125C14.6344 22.9577 14.4919 22.7663 14.3948 22.5512C14.2977 22.3362 14.2483 22.1027 14.25 21.8668V19.0295C14.25 18.2188 14.826 17.5183 15.6277 17.3983C16.4773 17.2711 17.331 17.1743 18.1875 17.108M23.8125 17.108V16.4375C23.8125 15.9899 23.6347 15.5607 23.3182 15.2443C23.0018 14.9278 22.5725 14.75 22.125 14.75H19.875C19.4274 14.75 18.9982 14.9278 18.6817 15.2443C18.3653 15.5607 18.1875 15.9899 18.1875 16.4375V17.108M23.8125 17.108C21.9403 16.9633 20.0597 16.9633 18.1875 17.108M21 22.0625H21.006V22.0685H21V22.0625Z" stroke="#131313" stroke-width="1.4" stroke-linecap="round" stroke-linejoin="round"/>
</svg>
