<svg width="261" height="63" viewBox="0 0 261 63" fill="none" xmlns="http://www.w3.org/2000/svg">
<g clip-path="url(#clip0_1_302)">
<path d="M27.4215 37.1089C27.522 37.2763 27.5566 37.475 27.5186 37.6663C27.1639 39.2779 26.3009 40.7329 25.057 41.817C24.9888 41.8687 24.9314 41.9332 24.8881 42.007C24.8726 42.0408 24.8645 42.0775 24.8645 42.1146C24.8645 42.1519 24.8726 42.1886 24.8881 42.2223C24.9129 42.2512 24.9442 42.2739 24.9794 42.2885C25.0146 42.3032 25.0527 42.3095 25.0908 42.3068C25.2709 42.2588 25.445 42.1908 25.6101 42.1041C26.3397 41.6896 26.9844 41.1409 27.5102 40.4869C27.8269 40.1027 28.1393 39.7184 28.4391 39.3215C29.0037 38.5375 29.4214 37.6577 29.6721 36.7247C29.9 35.969 30.0943 35.2047 30.3308 34.4489C30.4274 34.1717 30.5445 33.9022 30.6813 33.6424C30.7362 33.5624 30.8 33.4888 30.8712 33.4228H30.9304C30.9894 33.6213 31.0613 33.8113 31.1034 34.014C31.2139 34.6514 31.2295 35.3016 31.1499 35.9436C31.0623 36.7792 30.8911 37.6038 30.639 38.4053C30.4624 38.8979 30.224 39.366 29.9297 39.7986C29.1898 41.0182 28.3159 42.1511 27.3244 43.1766C26.594 43.8819 25.8043 44.5233 24.964 45.0936C24.9028 45.125 24.8471 45.1664 24.7994 45.216C24.7503 45.2752 24.7247 45.3503 24.7277 45.4272C24.7453 45.4615 24.7711 45.4909 24.8027 45.513C24.8343 45.5351 24.8709 45.5491 24.9092 45.5538C25.0858 45.5527 25.2616 45.53 25.4327 45.4862C26.2129 45.2614 26.9426 44.8887 27.5819 44.3884C29.3703 43.0699 30.8227 41.3485 31.8212 39.3637C32.4575 38.0688 32.8701 36.6754 33.0415 35.2426C33.1442 34.3382 33.1542 33.4257 33.0711 32.5193C32.9986 32.0548 33.0129 31.5808 33.1133 31.1216C33.1399 31.0164 33.1782 30.9144 33.2273 30.8176C33.3413 30.598 33.506 30.5854 33.6158 30.8176C33.7312 31.0374 33.8165 31.2718 33.8691 31.5143C34.1009 32.6757 34.1734 33.8633 34.0844 35.0442C33.9206 36.9629 33.4382 38.8408 32.6573 40.6009C31.8664 42.4132 30.6789 44.025 29.1822 45.3173C28.6967 45.7396 28.2322 46.1619 27.7298 46.5588C27.1263 46.9975 26.4797 47.3739 25.8001 47.6818C24.3006 48.4269 22.7047 48.9598 21.0584 49.2652C20.0493 49.4404 19.0246 49.5084 18.0013 49.4679C17.4989 49.4679 16.9921 49.4342 16.4898 49.4089C15.3538 49.346 14.233 49.1184 13.1624 48.7332C11.6122 48.1938 10.1221 47.4947 8.71627 46.6475C7.07675 45.6422 5.67845 44.2886 4.62053 42.6825C4.09826 41.9273 3.64331 41.1276 3.26092 40.2927C3.24142 40.2431 3.21006 40.1991 3.16956 40.1644C3.12907 40.1299 3.08068 40.1057 3.02868 40.0942C2.75102 40.0252 2.4927 39.8939 2.27324 39.7103C2.05379 39.5267 1.87896 39.2955 1.76196 39.0344C1.44886 38.2698 1.20579 37.4784 1.03571 36.6699C0.726266 35.3646 0.560603 34.0294 0.541687 32.6882C0.554369 31.8389 0.632008 30.992 0.77392 30.1546C0.934196 29.017 1.21734 27.9 1.6184 26.8232C1.9731 25.8809 2.47163 24.9992 3.09624 24.2095C3.45937 23.7535 3.75916 23.2426 4.11384 22.7781C6.36487 19.803 9.58769 17.7113 13.2216 16.8668C13.9224 16.6979 14.6234 16.5205 15.3328 16.3896C15.9661 16.2714 16.5995 16.1954 17.2497 16.1363C18.0013 16.0687 18.7529 16.0096 19.5088 16.0012C22.5409 15.959 25.5113 16.8605 28.0085 18.5811C28.2931 18.7532 28.5495 18.9683 28.7684 19.2187C28.9302 19.4157 29.0379 19.6514 29.081 19.9027C29.0976 19.9618 29.1314 20.0147 29.1781 20.0547C29.7734 20.6289 30.4068 21.1736 30.9557 21.7901C31.828 22.7431 32.4593 23.8913 32.7967 25.1385C32.9513 25.6422 33.0051 26.1714 32.9551 26.696C32.9051 27.2205 32.7522 27.73 32.5053 28.1955C32.0923 28.8908 31.5116 29.4715 30.8163 29.8845C30.0428 30.4107 29.115 30.662 28.1815 30.598C27.3089 30.5581 26.4807 30.2025 25.8508 29.5973C25.189 28.9096 24.4839 28.2651 23.7396 27.6677C23.2498 27.2961 22.7431 26.9457 22.2322 26.6121C21.6146 26.2409 20.9304 25.9942 20.2181 25.8858C19.4079 25.7376 18.5827 25.688 17.7606 25.738C15.9634 25.7723 14.2244 26.382 12.7993 27.4777C11.7313 28.2846 10.8523 29.3149 10.2237 30.4967C9.86767 31.2138 9.64314 31.9889 9.56074 32.7853C9.492 33.2765 9.45253 33.7714 9.44252 34.2673C9.48235 35.681 9.85099 37.066 10.5192 38.3123C11.013 39.2792 11.6701 40.1534 12.4615 40.8965C13.1977 41.558 14.0132 42.1254 14.8895 42.5854C15.8867 43.1261 16.9881 43.4471 18.1196 43.5271C19.6055 43.6822 21.1063 43.457 22.4813 42.8726C23.1403 42.5628 23.7471 42.1526 24.28 41.6565C25.2005 40.8648 25.9727 39.9153 26.5602 38.8528C26.7798 38.4686 26.9317 38.0463 27.1175 37.6411C27.1724 37.5186 27.2357 37.3961 27.299 37.2779C27.3377 37.2206 27.3831 37.1682 27.4342 37.1217" fill="#131313"/>
<path d="M248.553 30.674C251.594 30.674 253.62 32.9372 253.62 36.2814C253.62 39.6255 251.594 41.855 248.553 41.855C245.513 41.855 243.453 39.6255 243.453 36.2476C243.453 32.8696 245.479 30.674 248.553 30.674ZM159.545 30.3362C161.91 30.3362 163.463 31.6536 163.835 33.7479H155.289C155.66 31.6367 157.214 30.3362 159.545 30.3362ZM82.9335 38.5783C82.9335 40.6389 81.7175 41.855 79.5555 41.855C77.3937 41.855 76.1101 40.6389 76.1101 38.5783V27.0259C76.1101 26.9139 76.0657 26.8065 75.9864 26.7272C75.9072 26.6481 75.7999 26.6036 75.6878 26.6036H71.2966C71.1845 26.6036 71.0772 26.6481 70.998 26.7272C70.9188 26.8065 70.8743 26.9139 70.8743 27.0259V38.781C70.8743 43.9155 73.8807 46.4827 77.6639 46.4827C80.3663 46.4827 82.1903 44.8275 82.9673 42.3278V45.5369C82.9733 45.6469 83.0198 45.7508 83.0977 45.8287C83.1756 45.9066 83.2795 45.953 83.3895 45.9592H87.8146C87.9265 45.9592 88.034 45.9146 88.1132 45.8354C88.1923 45.7563 88.2369 45.6488 88.2369 45.5369V27.0259C88.2369 26.9139 88.1923 26.8065 88.1132 26.7272C88.034 26.6481 87.9265 26.6036 87.8146 26.6036H83.3727C83.2606 26.6036 83.1533 26.6481 83.0741 26.7272C82.9948 26.8065 82.9504 26.9139 82.9504 27.0259L82.9335 38.5783ZM128.4 38.5783C128.4 40.6389 127.184 41.855 125.022 41.855C122.86 41.855 121.577 40.6389 121.577 38.5783V27.0259C121.577 26.9139 121.532 26.8065 121.453 26.7272C121.375 26.6481 121.267 26.6036 121.154 26.6036H116.764C116.651 26.6036 116.544 26.6481 116.464 26.7272C116.385 26.8065 116.341 26.9139 116.341 27.0259V38.781C116.341 43.9155 119.348 46.4827 123.131 46.4827C125.833 46.4827 127.658 44.8275 128.434 42.3278V45.5369C128.44 45.6469 128.487 45.7508 128.565 45.8287C128.642 45.9066 128.747 45.953 128.856 45.9592H133.281C133.394 45.9592 133.501 45.9146 133.581 45.8354C133.659 45.7563 133.704 45.6488 133.704 45.5369V27.0259C133.704 26.9139 133.659 26.8065 133.581 26.7272C133.501 26.6481 133.394 26.6036 133.281 26.6036H128.839C128.728 26.6036 128.62 26.6481 128.541 26.7272C128.462 26.8065 128.417 26.9139 128.417 27.0259L128.4 38.5783ZM138.028 45.5369C138.028 45.6488 138.072 45.7563 138.151 45.8354C138.23 45.9146 138.337 45.9592 138.45 45.9592H142.807C142.919 45.9592 143.026 45.9146 143.106 45.8354C143.185 45.7563 143.23 45.6488 143.23 45.5369V34.9302C143.23 32.2616 144.919 31.7549 147.283 31.7549H149.039C149.152 31.7549 149.259 31.7105 149.338 31.6313C149.418 31.5521 149.462 31.4447 149.462 31.3327V27.0259C149.462 26.9139 149.418 26.8065 149.338 26.7272C149.259 26.6481 149.152 26.6036 149.039 26.6036H148.618C145.78 26.6036 144.024 27.921 143.213 31.1301V27.0428C143.213 26.9308 143.168 26.8233 143.089 26.7441C143.01 26.665 142.902 26.6205 142.791 26.6205H138.433C138.321 26.6205 138.213 26.665 138.134 26.7441C138.055 26.8233 138.011 26.9308 138.011 27.0428L138.028 45.5369ZM205.89 45.5369C205.89 45.6488 205.935 45.7563 206.014 45.8354C206.092 45.9146 206.2 45.9592 206.312 45.9592H210.703C210.816 45.9592 210.923 45.9146 211.002 45.8354C211.081 45.7563 211.126 45.6488 211.126 45.5369V33.7479C211.126 31.8563 212.173 30.674 214.165 30.674C216.159 30.674 217.274 31.8563 217.274 33.7479V45.5369C217.274 45.6488 217.318 45.7563 217.397 45.8354C217.476 45.9146 217.584 45.9592 217.695 45.9592H222.12C222.233 45.9592 222.341 45.9146 222.42 45.8354C222.499 45.7563 222.543 45.6488 222.543 45.5369V33.7479C222.543 31.8563 223.624 30.674 225.584 30.674C227.543 30.674 228.691 31.8563 228.691 33.7479V45.5369C228.696 45.6469 228.743 45.7508 228.822 45.8287C228.899 45.9066 229.003 45.953 229.113 45.9592H233.504C233.616 45.9592 233.723 45.9146 233.803 45.8354C233.882 45.7563 233.927 45.6488 233.927 45.5369V33.579C233.927 28.5797 230.971 26.0463 227.205 26.0463C224.029 26.0463 222.408 28.1068 221.563 30.6909C221.326 29.4019 220.649 28.2349 219.648 27.3883C218.648 26.5417 217.384 26.0674 216.074 26.0463C213.305 26.0463 212.055 27.7352 211.109 30.2348V27.0259C211.109 26.9139 211.064 26.8065 210.985 26.7272C210.905 26.6481 210.799 26.6036 210.686 26.6036H206.296C206.183 26.6036 206.076 26.6481 205.996 26.7272C205.917 26.8065 205.873 26.9139 205.873 27.0259L205.89 45.5369ZM259.228 36.2814C259.228 30.6064 255.883 26.0463 250.512 26.0463C247 26.0463 244.297 27.9041 243.453 30.5389V27.0259C243.453 26.9139 243.408 26.8065 243.329 26.7272C243.25 26.6481 243.142 26.6036 243.03 26.6036H238.622C238.51 26.6036 238.403 26.6481 238.324 26.7272C238.244 26.8065 238.2 26.9139 238.2 27.0259V53.0359C238.2 53.1479 238.244 53.2553 238.324 53.3345C238.403 53.4137 238.51 53.4581 238.622 53.4581H243.047C243.159 53.4581 243.266 53.4137 243.346 53.3345C243.425 53.2553 243.47 53.1479 243.47 53.0359V42.0577C244.314 44.6925 247.016 46.5165 250.529 46.5165C255.9 46.5165 259.244 41.9901 259.244 36.2814H259.228ZM186.062 35.1413L189.469 25.9449L192.885 35.1413H186.062ZM169.172 36.2898C169.172 30.5136 165.726 25.8182 159.511 25.8182C153.668 25.8182 149.851 30.5136 149.851 36.2898C149.851 42.2688 154.107 46.7277 160.592 46.7277C164.105 46.7277 167.112 45.1738 168.53 43.1132C168.567 43.065 168.594 43.0097 168.609 42.9509C168.624 42.892 168.627 42.8306 168.617 42.7705C168.608 42.7105 168.587 42.653 168.554 42.6016C168.521 42.5501 168.479 42.5058 168.429 42.4714L165.473 39.8367C165.432 39.8006 165.384 39.7736 165.332 39.7573C165.28 39.741 165.225 39.7359 165.17 39.7423C165.117 39.7486 165.064 39.7664 165.018 39.7943C164.971 39.8222 164.93 39.8596 164.899 39.9042C164.394 40.6325 163.716 41.2238 162.926 41.6247C162.136 42.0257 161.259 42.2238 160.372 42.2012C157.872 42.2012 155.575 41.0189 155.237 37.7761H168.749C168.807 37.7813 168.863 37.7739 168.917 37.7545C168.971 37.7351 169.02 37.7043 169.059 37.664C169.1 37.6236 169.131 37.575 169.15 37.5214C169.17 37.4678 169.177 37.4106 169.172 37.3539V36.2898ZM100.347 30.7163C100.347 30.8282 100.391 30.9356 100.47 31.0148C100.55 31.094 100.657 31.1384 100.769 31.1384H103.606V40.2082C103.606 43.8564 105.464 45.9845 109.349 45.9845H112.964C113.075 45.9845 113.183 45.94 113.262 45.8608C113.341 45.7816 113.385 45.6742 113.385 45.5622V41.762C113.39 41.7053 113.383 41.6481 113.364 41.5945C113.344 41.541 113.314 41.4923 113.273 41.452C113.233 41.4116 113.185 41.3808 113.131 41.3613C113.077 41.3419 113.02 41.3346 112.964 41.3399H110.51C109.294 41.3399 108.889 40.9176 108.889 39.8873V31.1469H112.908C113.02 31.1469 113.127 31.1024 113.207 31.0233C113.286 30.9441 113.331 30.8366 113.331 30.7247V27.0428C113.331 26.9308 113.286 26.8233 113.207 26.7441C113.127 26.665 113.02 26.6205 112.908 26.6205H108.889V21.0469C108.889 20.9349 108.844 20.8275 108.765 20.7484C108.686 20.6692 108.578 20.6247 108.467 20.6247H103.978C103.921 20.6195 103.864 20.6269 103.81 20.6462C103.757 20.6656 103.708 20.6966 103.668 20.7368C103.628 20.7771 103.597 20.8258 103.577 20.8794C103.558 20.933 103.55 20.9902 103.556 21.0469V26.5867H100.718C100.606 26.5867 100.499 26.6312 100.42 26.7104C100.341 26.7896 100.296 26.897 100.296 27.009L100.347 30.7163ZM176.215 45.5791C176.197 45.6246 176.189 45.6739 176.194 45.7226C176.199 45.7714 176.215 45.8184 176.241 45.8596C176.268 45.901 176.304 45.9354 176.346 45.96C176.389 45.9846 176.436 45.9988 176.486 46.0013H181.653C181.783 46.0052 181.909 45.9657 182.013 45.8892C182.118 45.8127 182.193 45.7035 182.227 45.5791L184.288 39.9718H194.692L196.803 45.5791C196.839 45.7035 196.914 45.8127 197.018 45.8892C197.122 45.9657 197.248 46.0052 197.378 46.0013H202.647C202.696 45.9988 202.744 45.9846 202.787 45.96C202.828 45.9354 202.865 45.901 202.891 45.8596C202.917 45.8184 202.934 45.7714 202.938 45.7226C202.943 45.6739 202.936 45.6246 202.917 45.5791L193.459 21.0216C193.421 20.9097 193.348 20.8132 193.25 20.7462C193.153 20.6793 193.037 20.6455 192.918 20.65H186.196C186.073 20.6378 185.949 20.6679 185.845 20.7354C185.74 20.8029 185.662 20.9038 185.622 21.0216L176.215 45.5791ZM58.4942 41.2554C54.0016 41.2554 50.9952 37.9112 50.9952 33.2835C50.9952 28.6557 54.0016 25.3116 58.4942 25.3116C59.729 25.3243 60.944 25.6239 62.0432 26.1867C63.1423 26.7495 64.0956 27.56 64.8279 28.5543C64.8589 28.6092 64.9028 28.6558 64.9555 28.6905C65.0083 28.725 65.0686 28.7464 65.1314 28.753C65.1941 28.7596 65.2575 28.7512 65.3164 28.7284C65.3752 28.7056 65.4277 28.6691 65.4696 28.6219L69.0502 25.548C69.1333 25.472 69.1858 25.3685 69.1983 25.2567C69.2107 25.1449 69.1821 25.0323 69.1178 24.94C66.9221 21.731 63.2064 20.1096 58.5111 20.1096C50.4885 20.1096 45.202 26.0885 45.202 33.2835C45.202 40.546 50.5054 46.525 58.5111 46.525C63.2064 46.525 67.1586 44.5319 69.1178 41.6269C69.183 41.5349 69.2121 41.4222 69.1996 41.31C69.1872 41.198 69.134 41.0944 69.0502 41.0189L65.4358 38.0632C65.397 38.0168 65.3472 37.9808 65.291 37.9583C65.2348 37.9357 65.1739 37.9274 65.1138 37.9341C65.0536 37.9407 64.996 37.9622 64.946 37.9965C64.8962 38.0309 64.8556 38.077 64.8279 38.1308C64.0826 39.1015 63.1234 39.887 62.0248 40.4261C60.9261 40.9651 59.718 41.2432 58.4942 41.2385V41.2554ZM97.4417 19.282H92.9659C92.9092 19.2768 92.852 19.2841 92.7984 19.3035C92.7448 19.3229 92.6962 19.3538 92.6559 19.3941C92.6155 19.4344 92.5846 19.4831 92.5652 19.5367C92.5458 19.5903 92.5385 19.6475 92.5437 19.7042V45.5453C92.5437 45.6573 92.5882 45.7647 92.6674 45.8439C92.7465 45.9231 92.854 45.9676 92.9659 45.9676H97.4206C97.5325 45.9676 97.64 45.9231 97.7192 45.8439C97.7983 45.7647 97.8428 45.6573 97.8428 45.5453V19.6958C97.848 19.639 97.8407 19.5818 97.8213 19.5282C97.8019 19.4746 97.7709 19.426 97.7306 19.3857C97.6904 19.3454 97.6417 19.3145 97.5881 19.2951C97.5345 19.2757 97.4774 19.2683 97.4206 19.2735" fill="#131313"/>
</g>
<defs>
<clipPath id="clip0_1_302">
<rect width="259.625" height="62" fill="white" transform="translate(0.541687 0.500732)"/>
</clipPath>
</defs>
</svg>
