<svg width="162" height="35" viewBox="0 0 162 35" fill="none" xmlns="http://www.w3.org/2000/svg">
<path d="M0.603516 0.495356H12.2286C19.6488 0.495356 24.3482 6.43156 24.3482 14.5939C24.3482 19.046 22.8641 23.0034 19.896 25.4768C17.9174 27.2082 15.1965 28.1975 11.7338 28.1975H0.603516V0.495356ZM11.3628 23.3744C16.6807 23.3744 18.6594 20.159 18.6594 14.7175C18.6594 9.27604 16.3097 5.44219 11.4865 5.44219H6.16868V23.4981H11.3628V23.3744ZM25.2138 18.304C25.2138 12.3678 29.4187 7.79193 35.6021 7.79193C41.7857 7.79193 45.9904 12.3678 45.9904 18.304C45.9904 24.2401 41.7857 28.8159 35.6021 28.8159C29.4187 28.8159 25.2138 24.1164 25.2138 18.304ZM40.549 18.304C40.549 14.4701 38.694 11.7494 35.4785 11.7494C32.263 11.7494 30.4081 14.3465 30.4081 18.304C30.4081 22.2613 32.1394 24.7348 35.4785 24.7348C38.8176 24.7348 40.549 22.1377 40.549 18.304ZM46.9798 18.304C46.9798 12.3678 50.8137 7.79193 56.8735 7.79193C62.0676 7.79193 65.1593 10.76 65.9014 15.0885H60.7072C60.3362 13.3571 58.9758 11.9968 57.1207 11.9968C53.9054 11.9968 52.2976 14.4701 52.2976 18.304C52.2976 22.0141 53.7816 24.6111 56.9971 24.6111C59.0995 24.6111 60.5836 23.4981 60.9546 21.272H66.1487C65.7777 25.4768 62.5623 28.8159 57.2445 28.8159C50.9373 28.6923 46.9798 24.1164 46.9798 18.304ZM79.9998 28.1975V25.8478H79.8761C78.5157 27.7029 77.0317 28.6923 74.1872 28.6923C69.7351 28.6923 67.2618 25.8478 67.2618 21.5193V8.28667H72.4559V20.6537C72.4559 23.0034 73.4452 24.2401 75.795 24.2401C78.2683 24.2401 79.7524 22.3851 79.7524 19.788V8.28667H85.0703V28.0739H79.9998V28.1975ZM110.67 0.619102H115.988V5.56594H110.67V0.619102ZM110.67 8.28667H115.988V28.0739H110.67V8.28667ZM118.09 28.6923H123.284C123.655 29.9289 124.892 30.9183 127.242 30.9183C130.21 30.9183 131.694 29.4343 131.694 26.8372V24.6111H131.57C130.458 25.9714 128.85 26.9608 126.376 26.9608C121.924 26.9608 117.596 23.4981 117.596 17.4382C117.596 11.502 121.182 7.79193 126.129 7.79193C128.602 7.79193 130.458 8.78129 131.57 10.389H131.694V8.28667H136.764V26.5898C136.764 29.4343 135.898 31.2893 134.414 32.6496C132.806 34.2574 130.21 34.8757 127.242 34.8757C122.048 34.8757 118.709 32.6496 118.09 28.6923ZM132.064 17.3146C132.064 14.4701 130.457 11.9968 127.366 11.9968C124.645 11.9968 122.913 14.0991 122.913 17.4382C122.913 20.7773 124.645 22.7561 127.366 22.7561C130.704 22.7561 132.064 20.2826 132.064 17.3146ZM144.308 11.0074C145.792 8.90504 147.648 7.79193 150.244 7.79193C154.326 7.79193 157.046 10.8837 157.046 15.2121V28.1975H151.728V16.0779C151.728 13.9755 150.492 12.4914 148.266 12.4914C145.916 12.4914 144.184 14.3465 144.184 17.0672V28.3212H139.114V8.53392H144.308V11.0074ZM98.6739 11.502C94.5928 10.6364 92.7379 9.89429 92.7379 7.6683C92.7379 5.68957 94.7165 4.45283 97.6846 4.45283C100.405 4.45283 102.508 5.68957 103.002 8.28667H108.444C107.826 2.96884 103.868 0.000732422 97.6846 0.000732422C91.5011 0.000732422 87.049 2.84509 87.049 8.28667C87.049 14.0991 91.6247 15.3359 96.5716 16.4489C100.776 17.4382 103.373 17.9329 103.373 20.6537C103.373 23.2507 100.9 24.2401 98.0556 24.2401C94.0982 24.2401 92.2431 22.8797 91.8721 19.5406H86.4307C86.678 25.3532 90.8827 28.6923 98.4267 28.6923C104.61 28.6923 109.186 25.6004 109.186 19.9116C109.062 14.0991 104.363 12.7388 98.6739 11.502ZM159.272 11.9968C158.159 11.9968 157.17 11.0074 157.17 9.89429C157.17 8.78129 158.159 7.79193 159.272 7.79193C160.385 7.79193 161.375 8.78129 161.375 9.89429C161.375 11.0074 160.385 11.9968 159.272 11.9968ZM159.272 8.16293C158.283 8.16293 157.541 8.90504 157.541 9.89429C157.541 10.8837 158.283 11.6258 159.272 11.6258C160.262 11.6258 161.003 10.8837 161.003 9.89429C161.003 8.90504 160.262 8.16293 159.272 8.16293Z" fill="#131313"/>
<path d="M158.532 8.78178H159.274C159.522 8.78178 159.768 8.78178 159.892 8.9054C160.016 9.02903 160.14 9.15277 160.14 9.40003C160.14 9.77114 159.892 9.89477 159.768 10.0184L160.264 10.8841H159.768L159.398 10.1421H158.904V10.8841H158.532V8.78178ZM158.904 9.15277V9.77114H159.274C159.398 9.77114 159.646 9.77114 159.646 9.40003C159.646 9.40003 159.646 9.15277 159.522 9.15277H158.904Z" fill="#131313"/>
</svg>
