<svg width="111" height="25" viewBox="0 0 111 25" fill="none" xmlns="http://www.w3.org/2000/svg">
<path d="M0.568 23.5V0.619999H17.592V5.388H6.232V10.028H15.736V14.604H6.232V23.5H0.568ZM19.53 23.5V0.619999H24.81V23.5H19.53ZM32.7818 18.956C33.3791 19.852 34.2324 20.3 35.3418 20.3C36.4511 20.3 37.3044 19.852 37.9018 18.956C38.5204 18.06 38.8298 16.8547 38.8298 15.34C38.8298 13.8253 38.5204 12.62 37.9018 11.724C37.3044 10.8067 36.4511 10.348 35.3418 10.348C34.2324 10.348 33.3791 10.796 32.7818 11.692C32.1844 12.588 31.8858 13.804 31.8858 15.34C31.8858 16.8547 32.1844 18.06 32.7818 18.956ZM41.6778 21.548C40.0778 23.1907 37.9764 24.012 35.3738 24.012C32.7711 24.012 30.6591 23.1907 29.0378 21.548C27.4164 19.9053 26.6058 17.836 26.6058 15.34C26.6058 12.844 27.4164 10.7747 29.0378 9.132C30.6591 7.48933 32.7711 6.668 35.3738 6.668C37.9764 6.668 40.0778 7.48933 41.6778 9.132C43.2991 10.7747 44.1098 12.844 44.1098 15.34C44.1098 17.836 43.2991 19.9053 41.6778 21.548ZM48.96 23.5L43.936 7.116H49.248L51.04 13.9L51.776 17.068H51.84C52.096 15.8093 52.3413 14.7213 52.576 13.804L54.304 7.116H58.72L60.512 13.804L61.28 17.1H61.344C61.6213 15.8413 61.8773 14.7747 62.112 13.9L63.936 7.116H69.088L64.064 23.5H59.168L57.248 16.076L56.544 13.132H56.48C56.224 14.2413 55.9787 15.2227 55.744 16.076L53.792 23.5H48.96ZM69.1905 23.5L72.3905 6.956H74.9505L74.4705 9.484H74.5345C76.1558 7.54267 77.9478 6.572 79.9105 6.572C80.8278 6.572 81.5852 6.828 82.1825 7.34C82.7798 7.83067 83.1638 8.57733 83.3345 9.58H83.3985C85.0838 7.57467 86.9932 6.572 89.1265 6.572C90.4918 6.572 91.5265 6.99867 92.2305 7.852C92.9558 8.684 93.1478 9.98533 92.8065 11.756L90.5345 23.5H88.0065L90.3105 11.692C90.6945 9.708 90.0225 8.716 88.2945 8.716C87.1212 8.716 86.0225 9.20667 84.9985 10.188C83.9745 11.148 83.3238 12.3427 83.0465 13.772L81.1585 23.5H78.5985L80.9025 11.532C81.2652 9.65467 80.6252 8.716 78.9825 8.716C77.8305 8.716 76.7105 9.228 75.6225 10.252C74.5558 11.2547 73.8945 12.428 73.6385 13.772L71.7505 23.5H69.1905ZM101.462 23.948C99.4353 23.948 97.7607 23.308 96.438 22.028C95.1367 20.748 94.486 18.9773 94.486 16.716C94.486 13.9213 95.286 11.532 96.886 9.548C98.486 7.54267 100.598 6.54 103.222 6.54C105.249 6.54 106.913 7.20133 108.214 8.524C109.515 9.84667 110.166 11.6173 110.166 13.836C110.166 16.6093 109.387 18.988 107.83 20.972C106.273 22.956 104.15 23.948 101.462 23.948ZM97.046 16.684C97.046 18.1987 97.43 19.436 98.198 20.396C98.9873 21.3347 100.107 21.804 101.558 21.804C103.435 21.804 104.907 21.036 105.974 19.5C107.041 17.964 107.574 16.076 107.574 13.836C107.574 12.3427 107.201 11.1053 106.454 10.124C105.707 9.14267 104.609 8.652 103.158 8.652C101.238 8.652 99.734 9.44133 98.646 11.02C97.5793 12.5987 97.046 14.4867 97.046 16.684Z" fill="#D2D2D2"/>
</svg>
