<svg width="42" height="42" viewBox="0 0 42 42" fill="none" xmlns="http://www.w3.org/2000/svg">
<rect width="42" height="42" rx="21" fill="#FBCCD2"/>
<path d="M13.6875 26.0625C17.6892 26.0592 21.6735 26.5892 25.5353 27.6382C26.0805 27.7867 26.625 27.3817 26.625 26.8162V26.0625M14.8125 15.375V15.9375C14.8125 16.0867 14.7532 16.2298 14.6477 16.3352C14.5423 16.4407 14.3992 16.5 14.25 16.5H13.6875M13.6875 16.5V16.2188C13.6875 15.753 14.0655 15.375 14.5312 15.375H27.1875M13.6875 16.5V23.25M27.1875 15.375V15.9375C27.1875 16.248 27.4395 16.5 27.75 16.5H28.3125M27.1875 15.375H27.4688C27.9345 15.375 28.3125 15.753 28.3125 16.2188V23.5312C28.3125 23.997 27.9345 24.375 27.4688 24.375H27.1875M13.6875 23.25V23.5312C13.6875 23.755 13.7764 23.9696 13.9346 24.1279C14.0929 24.2861 14.3075 24.375 14.5312 24.375H14.8125M13.6875 23.25H14.25C14.3992 23.25 14.5423 23.3093 14.6477 23.4148C14.7532 23.5202 14.8125 23.6633 14.8125 23.8125V24.375M27.1875 24.375V23.8125C27.1875 23.6633 27.2468 23.5202 27.3523 23.4148C27.4577 23.3093 27.6008 23.25 27.75 23.25H28.3125M27.1875 24.375H14.8125M23.25 19.875C23.25 20.4717 23.0129 21.044 22.591 21.466C22.169 21.8879 21.5967 22.125 21 22.125C20.4033 22.125 19.831 21.8879 19.409 21.466C18.9871 21.044 18.75 20.4717 18.75 19.875C18.75 19.2783 18.9871 18.706 19.409 18.284C19.831 17.8621 20.4033 17.625 21 17.625C21.5967 17.625 22.169 17.8621 22.591 18.284C23.0129 18.706 23.25 19.2783 23.25 19.875ZM25.5 19.875H25.506V19.881H25.5V19.875ZM16.5 19.875H16.506V19.881H16.5V19.875Z" stroke="#131313" stroke-width="1.4" stroke-linecap="round" stroke-linejoin="round"/>
</svg>
