<svg width="166" height="31" viewBox="0 0 166 31" fill="none" xmlns="http://www.w3.org/2000/svg">
<path d="M53.0561 27.2904C50.6703 27.2904 48.5647 26.8196 46.7295 25.8827C44.9482 24.9728 43.4712 23.563 42.4795 21.826C41.4798 20.0778 40.9775 18.0229 40.9775 15.6589C40.9775 13.2925 41.4798 11.2376 42.4795 9.49182C43.4587 7.74447 44.939 6.33064 46.7295 5.43274C48.5647 4.47412 50.6703 3.9936 53.0561 3.9936C54.6764 3.9936 56.1035 4.16504 57.3399 4.50551C58.5955 4.82666 59.7474 5.33616 60.7906 6.03883V10.675C59.8419 9.90173 58.7423 9.33506 57.562 9.0113C56.3691 8.6491 55.0072 8.468 53.4714 8.468C52.0467 8.468 50.7573 8.76742 49.6079 9.36143C48.4945 9.9217 47.5633 10.7867 46.9227 11.8558C46.261 12.9424 45.9326 14.2101 45.9326 15.6589C45.9326 17.127 46.2296 18.4165 46.8261 19.5224C47.4442 20.609 48.3063 21.4541 49.4147 22.0482C50.523 22.6446 51.8004 22.9416 53.2493 22.9416C54.5702 22.9416 55.7196 22.7098 56.7024 22.2413V17.9263H53.0899V14.3477H61.3967V25.1172C59.2886 26.566 56.5068 27.2904 53.0561 27.2904ZM62.5171 11.4719H67.1848V13.6765C67.803 12.9303 68.6651 12.3653 69.7734 11.9838C70.9845 11.5615 72.2604 11.3556 73.5428 11.3753V15.0504C72.0747 15.0504 70.7731 15.275 69.6454 15.7217C68.5371 16.1684 67.7692 16.8518 67.3442 17.7669V26.8099H62.5195L62.5171 11.4719ZM82.8155 27.2904C79.8767 27.2904 77.5634 26.5853 75.8803 25.18C74.1997 23.7529 73.3569 21.7608 73.3569 19.2037C73.3569 16.6682 74.1031 14.6665 75.593 13.1984C77.107 11.7254 79.2585 10.9938 82.0476 10.9938C83.8828 10.9938 85.4355 11.3318 86.7153 12.0152C87.9927 12.6961 88.961 13.6451 89.6227 14.8597C90.2819 16.0525 90.6127 17.4047 90.6127 18.9163V20.8674H77.9594C78.2975 22.8257 80.1327 23.806 83.4554 23.806C84.4358 23.806 85.4475 23.7215 86.4907 23.5501C87.4181 23.4104 88.3285 23.1749 89.2073 22.8474V26.2352C88.4587 26.5539 87.5025 26.8099 86.3314 27.0007C85.1692 27.1924 83.9933 27.2893 82.8155 27.2904ZM86.044 17.7355C85.9788 16.7117 85.5949 15.9245 84.8922 15.3691C84.1919 14.7945 83.2212 14.5071 81.9848 14.5071C80.7702 14.5071 79.8115 14.7969 79.1112 15.3691C78.4061 15.9463 78.0246 16.7334 77.9594 17.7355H86.044ZM100.501 27.2904C97.5623 27.2904 95.2514 26.5853 93.5708 25.18C91.8853 23.7529 91.0449 21.7608 91.0449 19.2037C91.0449 16.6682 91.7911 14.6665 93.281 13.1984C94.7926 11.7254 96.9466 10.9938 99.7356 10.9938C101.568 10.9938 103.124 11.3318 104.401 12.0152C105.681 12.6961 106.647 13.6451 107.308 14.8597C107.97 16.0525 108.298 17.4047 108.298 18.9163V20.8674H95.645C95.9879 22.8257 97.8183 23.806 101.141 23.806C102.121 23.806 103.133 23.7215 104.179 23.5501C105.105 23.4102 106.015 23.1747 106.893 22.8474V26.2352C106.149 26.5539 105.191 26.8099 104.019 27.0007C102.846 27.1938 101.672 27.2904 100.501 27.2904ZM103.73 17.7355C103.667 16.7117 103.283 15.9245 102.58 15.3691C101.878 14.7945 100.907 14.5071 99.6728 14.5071C98.4582 14.5071 97.4996 14.7969 96.7969 15.3691C96.0942 15.9463 95.7102 16.7334 95.645 17.7355H103.73ZM109.37 11.4719H114.036V13.3553C114.717 12.583 115.571 11.9816 116.528 11.5998C117.508 11.1942 118.532 10.9913 119.595 10.9913C121.683 10.9913 123.241 11.5564 124.262 12.6864C125.305 13.7948 125.827 15.2943 125.827 17.1922V26.8099H121.002V17.7355C121.002 15.7555 120.085 14.7631 118.254 14.7631C117.457 14.7601 116.674 14.9693 115.984 15.3691C115.251 15.7828 114.636 16.3771 114.198 17.0956V26.8099H109.37V11.4719ZM130.084 9.10789C129.338 9.10789 128.71 8.86159 128.201 8.37141C127.95 8.13399 127.752 7.84634 127.619 7.52722C127.487 7.2081 127.423 6.86468 127.433 6.51935C127.433 5.79495 127.689 5.18886 128.198 4.69868C128.71 4.18677 129.338 3.93081 130.084 3.93081C130.83 3.93081 131.461 4.18677 131.968 4.69868C132.217 4.93054 132.415 5.21267 132.548 5.52648C132.681 5.8403 132.745 6.17868 132.738 6.51935C132.738 7.26548 132.482 7.88364 131.97 8.37141C131.721 8.61272 131.426 8.80209 131.102 8.92851C130.779 9.05494 130.431 9.11591 130.084 9.10789ZM127.655 11.4719H132.513V26.8099H127.655V11.4719ZM140.743 27.2904C139.591 27.2904 138.357 27.16 137.036 26.9041C135.737 26.6698 134.713 26.3294 133.97 25.8827V22.1109C134.82 22.6228 135.843 23.0382 137.036 23.3593C138.229 23.6781 139.338 23.8374 140.359 23.8374C141.233 23.8374 141.871 23.765 142.276 23.6129C142.68 23.4656 142.882 23.1879 142.882 22.7822C142.887 22.6362 142.858 22.491 142.798 22.3582C142.737 22.2253 142.646 22.1084 142.532 22.0168C142.298 21.8043 141.936 21.6232 141.446 21.4735C140.664 21.2045 139.875 20.9589 139.079 20.737C137.78 20.3555 136.759 19.9715 136.012 19.5876C135.342 19.2327 134.771 18.7165 134.351 18.0857C133.989 17.4892 133.808 16.7238 133.808 15.7845C133.808 14.1884 134.436 12.9955 135.691 12.2059C136.971 11.397 138.698 10.9938 140.871 10.9938C141.933 10.9938 143.032 11.1097 144.162 11.3439C145.312 11.5564 146.195 11.8437 146.814 12.2059V15.8811C146.195 15.4754 145.386 15.147 144.384 14.891C143.447 14.6409 142.481 14.5119 141.511 14.5071C140.637 14.5071 139.953 14.5916 139.463 14.7631C138.995 14.9321 138.763 15.2532 138.763 15.7217C138.763 16.1274 138.985 16.4364 139.432 16.6489C139.9 16.8614 140.762 17.127 142.02 17.4458L142.66 17.6076C144.003 17.9698 145.046 18.373 145.792 18.8221C146.536 19.2471 147.057 19.7687 147.357 20.3869C147.676 20.9833 147.835 21.7391 147.835 22.6567C147.835 24.062 147.229 25.1921 146.014 26.042C144.8 26.8727 143.044 27.2904 140.743 27.2904ZM148.951 3.19675H153.778V13.2297C154.502 12.4836 155.323 11.9306 156.238 11.5684C157.17 11.1822 158.169 10.9868 159.177 10.9938C161.263 10.9938 162.819 11.5564 163.842 12.684C164.886 13.7948 165.407 15.2967 165.407 17.1922V26.8099H160.582V17.7355C160.582 15.7555 159.665 14.7631 157.834 14.7631C157.026 14.7631 156.27 14.9659 155.565 15.3691C154.831 15.7828 154.216 16.3771 153.778 17.0956V26.8099H148.951V3.19434V3.19675Z" fill="#E2CCBF"/>
<path fill-rule="evenodd" clip-rule="evenodd" d="M24.4996 7.71674C24.5173 8.693 24.3403 9.663 23.9789 10.5701C23.6175 11.4772 23.079 12.3032 22.3948 12.9998C21.7106 13.6965 20.8945 14.2499 19.994 14.6276C19.0936 15.0053 18.1268 15.1999 17.1504 15.1999C16.1739 15.1999 15.2072 15.0053 14.3067 14.6276C13.4062 14.2499 12.5901 13.6965 11.9059 12.9998C11.2217 12.3032 10.6832 11.4772 10.3218 10.5701C9.96038 9.663 9.78337 8.693 9.80107 7.71674C9.83598 5.7908 10.6256 3.95553 12.0001 2.60586C13.3745 1.25619 15.224 0.5 17.1504 0.5C19.0768 0.5 20.9262 1.25619 22.3006 2.60586C23.6751 3.95553 24.4647 5.7908 24.4996 7.71674ZM0.0551403 14.5307C2.17107 14.3882 4.29277 14.7053 6.27458 15.4602C8.25639 16.215 10.0514 17.3897 11.5363 18.9037C13.0212 20.4177 14.161 22.235 14.8772 24.231C15.5935 26.2269 15.8693 28.3542 15.6858 30.4668C13.5699 30.6092 11.4482 30.2921 9.46637 29.5373C7.48456 28.7824 5.68958 27.6077 4.20464 26.0938C2.7197 24.5798 1.57998 22.7625 0.863722 20.7665C0.147461 18.7706 -0.128378 16.6433 0.0551403 14.5307ZM20.8679 30.1843C24.7186 29.8725 28.2917 28.0573 30.8142 25.1314C33.3367 22.2056 34.6059 18.4043 34.347 14.55C32.2342 14.3665 30.1068 14.6423 28.1107 15.3585C26.1146 16.0747 24.2971 17.2143 22.783 18.6992C21.2689 20.184 20.0941 21.9788 19.3392 23.9605C18.5843 25.9422 18.2672 28.0637 18.4096 30.1795C19.2138 30.2495 20.0348 30.2519 20.8679 30.1843Z" fill="#E2CCBF"/>
</svg>
