<svg width="127" height="30" viewBox="0 0 127 30" fill="none" xmlns="http://www.w3.org/2000/svg">
<path fill-rule="evenodd" clip-rule="evenodd" d="M2.9159 21.6967C4.85983 23.5551 7.32713 24.4844 10.3178 24.4844C13.9493 24.4844 16.8438 23.2134 19.0014 20.6713C21.1803 18.1079 22.2698 14.925 22.2698 11.1226C22.2698 7.85425 21.3085 5.28016 19.3859 3.40032C17.4847 1.52048 15.0388 0.580566 12.0481 0.580566C8.50203 0.580566 5.6075 1.88363 3.3645 4.48977C1.1215 7.09591 0 10.2681 0 14.0064C0 17.2534 0.971966 19.8168 2.9159 21.6967ZM4.9346 19.8702C3.61016 18.4604 2.94794 16.5058 2.94794 14.0064C2.94794 10.8663 3.73833 8.26012 5.31911 6.18803C6.92125 4.09458 9.12152 3.04785 11.9199 3.04785C14.227 3.04785 16.0428 3.78483 17.3672 5.25879C18.6916 6.73276 19.3539 8.69804 19.3539 11.1546C19.3539 14.2948 18.5635 16.8903 16.9827 18.941C15.4233 20.9704 13.223 21.9851 10.3819 21.9851C8.07479 21.9851 6.25903 21.2801 4.9346 19.8702ZM23.93 7.59791V24.0037H29.153V14.8075C29.153 13.8035 29.3773 13.0024 29.8259 12.4043C30.2958 11.7848 30.9367 11.4751 31.7484 11.4751C33.2865 11.4751 34.0555 12.4043 34.0555 14.2628V24.0037H39.2785V14.8075C39.2785 13.8035 39.5028 13.0024 39.9514 12.4043C40.4214 11.7848 41.0622 11.4751 41.874 11.4751C43.412 11.4751 44.1811 12.4043 44.1811 14.2628V24.0037H49.404V13.3335C49.404 11.4323 48.9234 9.92634 47.9621 8.81553C47.0222 7.68335 45.6443 7.11727 43.8286 7.11727C41.6283 7.11727 39.9087 8.07855 38.6697 10.0011H38.6056C37.687 8.07855 36.149 7.11727 33.9914 7.11727C31.8125 7.11727 30.157 8.05719 29.0248 9.93702H28.9287V7.59791H23.93ZM66.1349 22.0491C64.5328 23.694 62.4286 24.5164 59.8225 24.5164C57.2163 24.5164 55.1015 23.694 53.478 22.0491C51.8545 20.4043 51.0427 18.3322 51.0427 15.8329C51.0427 13.3335 51.8545 11.2614 53.478 9.61659C55.1015 7.97174 57.2163 7.14931 59.8225 7.14931C62.4286 7.14931 64.5328 7.97174 66.1349 9.61659C67.7584 11.2614 68.5702 13.3335 68.5702 15.8329C68.5702 18.3322 67.7584 20.4043 66.1349 22.0491ZM68.3962 7.59791L73.4269 24.0037H78.2654L80.22 16.5699C80.4549 15.7154 80.7006 14.7327 80.957 13.6219H81.021L81.726 16.5699L83.6486 24.0037H88.5511L93.5818 7.59791H88.4229L86.5965 14.391C86.3615 15.2668 86.1052 16.3349 85.8275 17.5952H85.7634L84.9944 14.2948L83.2 7.59791H78.778L77.0477 14.2948C76.8128 15.2134 76.5671 16.3028 76.3107 17.5632H76.2467L75.5097 14.391L73.7153 7.59791H68.3962ZM99.0186 24.4203C97.331 24.4203 95.9745 23.9824 94.9492 23.1066C93.9238 22.2307 93.4111 21.0024 93.4111 19.4216C93.4111 17.7554 93.9665 16.5485 95.0773 15.8008C96.1881 15.0318 97.7262 14.5191 99.6915 14.2628C101.294 14.0705 102.383 13.8569 102.96 13.6219C103.558 13.3656 103.857 12.9704 103.857 12.4363C103.857 11.2614 103.109 10.674 101.614 10.674C100.012 10.674 99.1254 11.3789 98.9545 12.7888H94.1481C94.2122 11.1653 94.8744 9.81953 96.1347 8.75144C97.4165 7.68335 99.2322 7.14931 101.582 7.14931C103.932 7.14931 105.705 7.59791 106.901 8.4951C108.29 9.49911 108.984 11.0585 108.984 13.1733V21.4403C108.984 22.7434 109.176 23.5231 109.561 23.7794V24.0037H104.498C104.284 23.7047 104.103 23.0959 103.953 22.1773H103.889C102.842 23.6726 101.219 24.4203 99.0186 24.4203ZM100.685 21.0879C101.667 21.0879 102.458 20.8208 103.056 20.2868C103.675 19.7314 103.985 19.0158 103.985 18.1399V16.1853C103.473 16.4417 102.575 16.7301 101.294 17.0505C100.247 17.2855 99.5099 17.5632 99.0827 17.8836C98.6554 18.204 98.4418 18.6633 98.4418 19.2614C98.4418 20.4791 99.1895 21.0879 100.685 21.0879ZM111.748 25.3495V29.419H115.144C116.789 29.419 118.06 29.0344 118.957 28.2654C119.876 27.4964 120.666 26.1506 121.328 24.228L127 7.59791H121.777L119.63 14.5832C119.288 15.6513 118.968 16.9116 118.669 18.3642H118.605L117.579 14.5832L115.368 7.59791H109.857L114.696 20.2227C115.358 21.9317 115.689 23.0638 115.689 23.6192C115.689 24.7728 114.973 25.3495 113.542 25.3495H111.748Z" fill="#6319FF"/>
<path d="M62.0753 11.5045C61.7046 10.5546 60.7894 9.9292 59.7697 9.9292C58.7501 9.9292 57.8348 10.5546 57.4641 11.5045L57.3622 11.7656C57.069 12.517 56.4747 13.1114 55.7232 13.4046L55.4621 13.5065C54.5122 13.8771 53.8868 14.7924 53.8868 15.8121C53.8868 16.8317 54.5122 17.747 55.4621 18.1176L55.7232 18.2195C56.4747 18.5127 57.069 19.1071 57.3622 19.8586L57.4641 20.1197C57.8348 21.0696 58.7501 21.6949 59.7697 21.6949C60.7894 21.6949 61.7046 21.0696 62.0753 20.1197L62.1772 19.8586C62.4704 19.1071 63.0648 18.5127 63.8162 18.2195L64.0773 18.1176C65.0272 17.747 65.6526 16.8317 65.6526 15.8121C65.6526 14.7924 65.0272 13.8771 64.0773 13.5065L63.8162 13.4046C63.0648 13.1114 62.4704 12.517 62.1772 11.7656L62.0753 11.5045Z" fill="#E2CCBF"/>
</svg>
