<svg width="217" height="63" viewBox="0 0 217 63" fill="none" xmlns="http://www.w3.org/2000/svg">
<g clip-path="url(#clip0_1_304)">
<path fill-rule="evenodd" clip-rule="evenodd" d="M5.72694 49.7159V44.489H29.2482V49.7159H5.72694ZM24.2521 23.5812H10.7209L17.4876 32.9461L24.2521 23.5812ZM34.4751 18.3542L17.4876 41.8755L0.5 18.3542H34.4751Z" fill="#131313"/>
<path d="M55.2039 44.4912V36.1019H47.1588V44.4912H42.3086V23.5834H47.1588V31.7658H55.2039V23.5791H60.0541V44.4868L55.2039 44.4912Z" fill="#131313"/>
<path d="M66.1738 44.4913V23.5835H79.422V28.0286H71.024V31.7658H78.6706V35.9888H71.024V40.068H79.422V44.4913H66.1738Z" fill="#131313"/>
<path d="M85.2 44.4913V23.5835H90.048V40.0723H98.4372V44.4956L85.2 44.4913Z" fill="#131313"/>
<path d="M102.507 44.4913V23.5835H107.364V40.0723H115.751V44.4956L102.507 44.4913Z" fill="#131313"/>
<path d="M129.433 44.8332C122.956 44.8332 118.82 40.1834 118.82 34.0483C118.82 27.9132 123.156 23.2351 129.633 23.2351C136.11 23.2351 140.246 27.887 140.246 34.0483C140.246 40.2096 135.881 44.8332 129.433 44.8332ZM129.513 27.5734C126.205 27.5734 123.979 30.2827 123.979 34.0483C123.979 37.8139 126.205 40.5253 129.513 40.5253C132.821 40.5253 135.049 37.7856 135.049 34.0483C135.049 30.311 132.828 27.5734 129.513 27.5734Z" fill="#131313"/>
<path d="M150.726 44.8332C148.359 44.8332 145.499 43.8924 143.681 42.6924L145.02 38.2995C146.703 39.5257 148.901 40.325 150.87 40.325C152.582 40.325 153.237 39.5257 153.237 38.4999C153.237 37.411 152.695 36.6727 149.5 35.3899C145.819 33.9067 144.541 31.7659 144.541 29.2548C144.541 26.2057 147.021 23.2351 151.9 23.2351C154.182 23.2351 156.524 24.0343 157.75 24.8619L156.519 29.1981C155.319 28.3705 153.381 27.4863 151.896 27.4863C150.127 27.4863 149.415 28.3139 149.415 29.1698C149.415 30.5397 150.469 30.9971 153.096 32.1078C157.003 33.763 158.172 35.6469 158.172 38.3279C158.172 41.6666 155.748 44.8332 150.726 44.8332Z" fill="#131313"/>
<path d="M163.373 44.4913V23.5835H168.223V44.4913H163.373Z" fill="#131313"/>
<path d="M192.402 32.7372V42.7228C190.004 44.1459 187.259 44.8764 184.47 44.8332C178.337 44.8332 173.487 40.4404 173.487 34.0483C173.487 27.6562 178.394 23.2351 184.727 23.2351C187.467 23.2351 189.662 23.9494 191.745 25.034L189.719 28.9411C188.279 28.1829 186.677 27.7818 185.05 27.7716C180.883 27.7716 178.66 30.3677 178.66 34.0483C178.66 38.0425 181.341 40.5253 184.758 40.5253C186.298 40.5253 187.069 40.3533 187.84 39.9547V36.873H183.643V32.735L192.402 32.7372Z" fill="#131313"/>
<path d="M215.436 44.8899L202.826 33.5648V44.4913H197.976V23.2939L198.629 23.1785L211.069 34.4186V23.5792H215.919V44.8049L215.436 44.8899Z" fill="#131313"/>
</g>
<defs>
<clipPath id="clip0_1_304">
<rect width="215.708" height="62" fill="white" transform="translate(0.5 0.500732)"/>
</clipPath>
</defs>
</svg>
