<svg width="185" height="63" viewBox="0 0 185 63" fill="none" xmlns="http://www.w3.org/2000/svg">
<g clip-path="url(#clip0_1_300)">
<path fill-rule="evenodd" clip-rule="evenodd" d="M3.94193 46.8098C-0.258448 42.6451 -0.258381 35.8927 3.94205 31.728L15.3506 20.4163C18.9015 16.8956 24.3174 16.3511 28.445 18.7828C29.7219 19.535 29.7107 21.2604 28.6605 22.3016C27.6105 23.3428 25.8962 23.2531 24.4709 22.8398C22.6456 22.3105 20.593 22.7595 19.1535 24.1868L7.74488 35.4984C5.64466 37.5808 5.64463 40.9569 7.74482 43.0394C9.84505 45.1218 13.2503 45.1218 15.3505 43.0394L38.1674 20.4164C42.368 16.2517 49.1781 16.2517 53.3787 20.4164L64.7874 31.728C68.9878 35.8926 68.9878 42.6451 64.7874 46.8098C60.5869 50.9746 53.7767 50.9746 49.5761 46.8098L45.7733 43.0394L41.0198 47.7525C37.4689 51.2732 32.053 51.8176 27.9252 49.3859C26.6485 48.6338 26.6597 46.9085 27.7098 45.8672C28.7599 44.826 30.474 44.9156 31.8995 45.3289C33.7248 45.8583 35.7774 45.4092 37.2169 43.982L42.1063 39.1342C44.1315 37.1262 47.415 37.1262 49.4404 39.1342L53.379 43.0394C55.4792 45.1217 58.8843 45.1217 60.9845 43.0394C63.0847 40.9569 63.0847 37.5808 60.9845 35.4984L49.5758 24.1869C47.4756 22.1046 44.0705 22.1046 41.9703 24.187L19.1534 46.81C14.9528 50.9747 8.14239 50.9747 3.94193 46.8098Z" fill="#131313"/>
<path d="M110.9 23.3372C108.257 23.3372 106.254 24.2836 104.933 26.1765C103.771 24.2836 101.929 23.3372 99.4865 23.3372C96.9636 23.3372 95.1214 24.2047 93.92 25.9793V23.8893H88.754V43.6067H93.92V32.5255C93.92 29.6468 95.4017 28.0694 97.6844 28.0694C99.8068 28.0694 101.048 29.4496 101.048 31.8157V43.6067H106.214V32.5255C106.214 29.6468 107.576 28.0694 109.939 28.0694C112.061 28.0694 113.302 29.4496 113.302 31.8157V43.6067H118.469V31.4607C118.469 26.5314 115.505 23.3372 110.9 23.3372Z" fill="#131313"/>
<path d="M137.673 26.2159C136.111 24.2836 133.949 23.3372 131.146 23.3372C128.462 23.3372 126.18 24.3625 124.258 26.3737C122.375 28.3848 121.414 30.8298 121.414 33.748C121.414 36.6661 122.375 39.1506 124.258 41.1618C126.18 43.1729 128.462 44.1589 131.146 44.1589C133.949 44.1589 136.111 43.2124 137.673 41.2801V43.6067H142.839V23.8893H137.673V26.2159ZM128.142 37.7703C127.101 36.7056 126.58 35.3648 126.58 33.748C126.58 32.1311 127.101 30.7904 128.142 29.7651C129.183 28.7003 130.505 28.1877 132.107 28.1877C133.709 28.1877 135.03 28.7003 136.071 29.7651C137.153 30.7904 137.673 32.1311 137.673 33.748C137.673 35.3648 137.153 36.7056 136.071 37.7703C135.03 38.7957 133.709 39.3083 132.107 39.3083C130.505 39.3083 129.183 38.7957 128.142 37.7703Z" fill="#131313"/>
<path d="M161.901 27.2806V23.8892H146.883V28.6608H154.932L146.482 40.2153V43.6066H162.301V38.835H153.41L161.901 27.2806Z" fill="#131313"/>
<path d="M183.901 35.838C184.021 35.0888 184.101 34.4184 184.101 33.748C184.101 30.7904 183.141 28.3454 181.218 26.3342C179.336 24.323 176.893 23.3372 173.97 23.3372C170.886 23.3372 168.324 24.323 166.36 26.3342C164.399 28.306 163.397 30.7904 163.397 33.748C163.397 36.7451 164.399 39.2295 166.401 41.2011C168.403 43.1729 171.047 44.1589 174.37 44.1589C178.214 44.1589 181.138 42.7391 183.1 39.9392L178.936 37.5732C177.934 38.8745 176.413 39.5449 174.45 39.5449C171.367 39.5449 169.485 38.3225 168.804 35.838H183.901ZM168.724 31.8945C169.324 29.3707 171.206 27.9116 173.97 27.9116C176.332 27.9116 178.334 29.213 178.936 31.8945H168.724Z" fill="#131313"/>
</g>
<defs>
<clipPath id="clip0_1_300">
<rect width="183.417" height="62" fill="white" transform="translate(0.791687 0.500732)"/>
</clipPath>
</defs>
</svg>
