<svg width="182" height="31" viewBox="0 0 182 31" fill="none" xmlns="http://www.w3.org/2000/svg">
<path fill-rule="evenodd" clip-rule="evenodd" d="M18.9523 1.24482C18.2506 1.22244 17.5515 1.34302 16.8967 1.59941C16.2418 1.85579 15.6446 2.24275 15.1404 2.73732C14.6361 3.23188 14.2352 3.82396 13.9614 4.4784C13.6876 5.13284 13.5466 5.83629 13.5466 6.54698C13.5466 7.25768 13.6876 7.96114 13.9614 8.61557C14.2352 9.27001 14.6361 9.86209 15.1404 10.3567C15.6446 10.8512 16.2418 11.2382 16.8967 11.4946C17.5515 11.751 18.2506 11.8715 18.9523 11.8492C20.313 11.8058 21.6036 11.2281 22.5509 10.2385C23.4982 9.24889 24.028 7.92498 24.028 6.54698C24.028 5.16899 23.4982 3.84508 22.5509 2.85547C21.6036 1.86585 20.313 1.28822 18.9523 1.24482ZM8.71007 11.5623C11.3295 11.563 13.8414 12.6168 15.6934 14.4919C17.5454 16.3671 18.5858 18.91 18.5858 21.5615V29.7528H13.6726V21.5588C13.6726 20.972 13.5712 20.4063 13.3867 19.8827L6.1729 27.1873L2.6999 23.6718L9.65891 16.6277C9.3454 16.5662 9.02679 16.5354 8.70747 16.5356H0.615051V11.5623H8.71007ZM29.3219 11.5623C26.7021 11.5623 24.1895 12.6158 22.3369 14.491C20.4844 16.3662 19.4436 18.9095 19.4436 21.5615V29.7528H24.3568V21.5588C24.3568 21.0983 24.4192 20.6536 24.5336 20.23L32.0827 27.8688L35.5557 24.3533L28.0066 16.7119C28.4251 16.5961 28.8644 16.5356 29.3219 16.5356H37.417V11.5623H29.3219Z" fill="#E2CCBF"/>
<path d="M45.2757 30.0395V1.45781H53.2746L61.8479 25.9504H62.4666V1.45781H67.0418V30.0395H59.2093L50.4306 5.50482H49.8535V30.0395H45.2783H45.2757ZM85.3739 26.2872L86.5281 26.1609L86.6087 29.5396C83.4762 30.179 80.6999 30.5 78.2823 30.5C75.233 30.5 73.0338 29.6501 71.6872 27.9529C70.3692 26.2583 69.709 23.5453 69.709 19.8167C69.709 12.4174 72.6906 8.7177 78.654 8.7177C84.425 8.7177 87.3105 11.9016 87.3105 18.2748L87.022 21.5271H74.2426C74.2686 23.2533 74.6429 24.5189 75.3552 25.3241C76.0701 26.132 77.4036 26.5346 79.3533 26.5346C81.3056 26.5346 83.3124 26.4556 85.3739 26.2872ZM82.8991 18.0248C82.8991 15.9644 82.569 14.533 81.9113 13.7252C81.2796 12.891 80.193 12.4726 78.654 12.4726C77.1151 12.4726 75.9869 12.9042 75.2746 13.7673C74.5857 14.6303 74.2296 16.0486 74.201 18.0221H82.8991V18.0248ZM100.659 13.0568H94.9714V22.2376C94.9714 23.9348 95.0936 25.061 95.3406 25.6162C95.5875 26.1741 96.2218 26.453 97.2382 26.453L100.618 26.3267L100.826 29.9579C98.9799 30.3184 97.5814 30.5 96.6195 30.5C94.2825 30.5 92.676 29.9579 91.7974 28.8712C90.9447 27.7871 90.5184 25.7425 90.5184 22.7402V13.0568H87.8798V9.17818H90.5184V3.12608H94.9688V9.17818H100.659V13.0568ZM100.675 9.17818H105.086L108.344 26.1609H109.168L113.083 9.59394H117.699L121.617 26.1609H122.441L125.654 9.17818H130.104L125.737 30.0395H118.604L115.388 15.7276L112.173 30.0421H105.042L100.675 9.17818ZM132.977 11.4306C134.407 9.62288 136.77 8.72033 140.066 8.72033C143.365 8.72033 145.712 9.62288 147.116 11.4306C148.546 13.2384 149.258 15.9513 149.258 19.5667C149.258 23.1822 148.572 25.9083 147.197 27.745C145.824 29.5817 143.445 30.5 140.066 30.5C136.687 30.5 134.308 29.579 132.935 27.745C131.56 25.9083 130.874 23.1822 130.874 19.5667C130.874 15.9513 131.576 13.2384 132.977 11.4306ZM136.356 24.9926C136.988 26.103 138.225 26.6609 140.066 26.6609C141.906 26.6609 143.144 26.103 143.775 24.9926C144.407 23.8795 144.724 22.056 144.724 19.5246C144.724 16.9933 144.381 15.1987 143.695 14.1435C143.035 13.0857 141.823 12.5568 140.066 12.5568C138.306 12.5568 137.084 13.0831 136.398 14.1435C135.738 15.1987 135.41 16.9933 135.41 19.5246C135.41 22.056 135.722 23.8795 136.356 24.9926ZM151.66 30.0395V9.17818H156.113V11.6806C158.447 10.1518 160.784 9.1624 163.121 8.7177V13.2673C160.756 13.7409 158.736 14.3514 157.062 15.1013L156.152 15.4776V30.0395H151.66ZM168.989 30.0395H164.491V0.5H168.986V17.5669L171.541 17.3169L176.402 9.18082H181.435L175.498 18.9431L181.763 30.0421H176.694L171.666 21.235L168.989 21.5271V30.0395Z" fill="#E2CCBF"/>
</svg>
