<svg width="963" height="836" viewBox="0 0 963 836" fill="none" xmlns="http://www.w3.org/2000/svg">
<path opacity="0.2" d="M12.841 0.5L12.841 835.5M-51 64.2653H963M-51 128.496H963M-51 192.727H963M-51 256.958H963M-51 321.188H963M-51 385.419H963M-51 449.65H963M-51 513.881H963M-51 578.111H963M-51 642.342H963M-51 706.573H963M-51 770.804H963M76.216 0.5L76.216 835.5M139.591 0.5L139.591 835.5M202.966 0.5L202.966 835.5M266.341 0.5L266.341 835.5M329.716 0.5L329.716 835.5M393.091 0.5L393.091 835.5M456.466 0.5L456.466 835.5M519.841 0.5L519.841 835.5M583.216 0.5L583.216 835.5M646.591 0.5L646.591 835.5M709.966 0.5L709.966 835.5M773.341 0.5L773.341 835.5M836.716 0.5L836.716 835.5M900.091 0.5L900.091 835.5" stroke="#E2CCBF" stroke-width="1.5"/>
</svg>
