<svg width="42" height="43" viewBox="0 0 42 43" fill="none" xmlns="http://www.w3.org/2000/svg">
<rect y="0.5" width="42" height="42" rx="21" fill="#FBCCD2"/>
<path d="M15.0735 27.4265C15.3347 27.6877 15.6448 27.895 15.986 28.0364C16.3273 28.1778 16.6931 28.2505 17.0625 28.2505M15.0735 27.4265C15.6009 27.9539 16.3166 28.2505 17.0625 28.2505M15.0735 27.4265C14.5461 26.8991 14.25 26.1834 14.25 25.4375V15.5938C14.25 15.128 14.628 14.75 15.0938 14.75H19.0312C19.497 14.75 19.875 15.128 19.875 15.5938V18.6477M17.0625 28.2505C17.4319 28.2505 17.7977 28.1778 18.139 28.0364C18.4802 27.895 18.7903 27.6877 19.0515 27.4265M17.0625 28.2505C17.8084 28.2505 18.5241 27.9539 19.0515 27.4265M17.0625 28.2505L26.9062 28.25C27.372 28.25 27.75 27.872 27.75 27.4062V23.4688C27.75 23.003 27.372 22.625 26.9062 22.625H23.8523M19.0515 27.4265L23.8523 22.625M19.0515 27.4265C19.5789 26.8991 19.875 26.1834 19.875 25.4375V18.6477M23.8523 22.625L26.0115 20.465C26.3415 20.1365 26.3415 19.6025 26.0115 19.2725L23.2275 16.4877C22.8975 16.1585 22.3635 16.1585 22.035 16.4877L19.875 18.6477M17.0625 25.4375H17.0685V25.4435H17.0625V25.4375Z" stroke="#131313" stroke-width="1.4" stroke-linecap="round" stroke-linejoin="round"/>
</svg>
