<svg width="42" height="43" viewBox="0 0 42 43" fill="none" xmlns="http://www.w3.org/2000/svg">
<rect y="0.5" width="42" height="42" rx="21" fill="#FBCCD2"/>
<path d="M18.75 16.25H17.25C16.8522 16.25 16.4706 16.408 16.1893 16.6893C15.908 16.9706 15.75 17.3522 15.75 17.75V26.75C15.75 27.1478 15.908 27.5294 16.1893 27.8107C16.4706 28.092 16.8522 28.25 17.25 28.25H24.75C25.1478 28.25 25.5294 28.092 25.8107 27.8107C26.092 27.5294 26.25 27.1478 26.25 26.75V17.75C26.25 17.3522 26.092 16.9706 25.8107 16.6893C25.5294 16.408 25.1478 16.25 24.75 16.25H23.25" stroke="#131313" stroke-width="1.4" stroke-linecap="round" stroke-linejoin="round"/>
<path d="M18.75 16.25C18.75 15.8522 18.908 15.4706 19.1893 15.1893C19.4706 14.908 19.8522 14.75 20.25 14.75H21.75C22.1478 14.75 22.5294 14.908 22.8107 15.1893C23.092 15.4706 23.25 15.8522 23.25 16.25C23.25 16.6478 23.092 17.0294 22.8107 17.3107C22.5294 17.592 22.1478 17.75 21.75 17.75H20.25C19.8522 17.75 19.4706 17.592 19.1893 17.3107C18.908 17.0294 18.75 16.6478 18.75 16.25Z" stroke="#131313" stroke-width="1.4" stroke-linecap="round" stroke-linejoin="round"/>
</svg>
