<svg width="107" height="34" viewBox="0 0 107 34" fill="none" xmlns="http://www.w3.org/2000/svg">
<path d="M64.0935 30.3484C64.0935 30.7135 64.3948 31.0023 64.7532 30.9838L70.0671 30.7296C70.2287 30.7219 70.3812 30.6512 70.4926 30.5324C70.6041 30.4136 70.6659 30.2558 70.6651 30.092V13.0945C70.6649 13.0091 70.6476 12.9246 70.6144 12.8461C70.5811 12.7676 70.5326 12.6967 70.4716 12.6376C70.4107 12.5785 70.3386 12.5324 70.2597 12.5022C70.1808 12.4719 70.0966 12.4581 70.0123 12.4615L64.6961 12.6764C64.534 12.6829 64.3807 12.7528 64.2684 12.8712C64.1561 12.9897 64.0934 13.1475 64.0935 13.3117V30.3484ZM64.9198 9.28012C65.2387 9.60474 65.62 9.85976 66.04 10.0294C66.4601 10.1991 66.9101 10.2798 67.3622 10.2667C68.3871 10.2667 69.2111 9.93858 69.8388 9.28012C70.4893 8.59625 70.8135 7.74603 70.8135 6.73409C70.8135 5.74525 70.4893 4.9089 69.8388 4.22503C69.2134 3.54115 68.3871 3.19922 67.3599 3.19922C66.3852 3.19922 65.5704 3.54115 64.9198 4.22503C64.6002 4.55639 64.3492 4.94901 64.1814 5.37985C64.0136 5.8107 63.9325 6.27111 63.9429 6.73409C63.9429 7.74603 64.2693 8.59625 64.9198 9.28012Z" fill="#E2CCBF"/>
<path fill-rule="evenodd" clip-rule="evenodd" d="M48.2844 20.1128V29.3497C48.2843 29.4977 48.2332 29.641 48.1398 29.7548C48.0465 29.8687 47.9168 29.9461 47.7731 29.9735L42.3086 31.0086C42.218 31.0259 42.1246 31.0227 42.0353 30.9994C41.946 30.9761 41.8629 30.9331 41.7918 30.8735C41.7208 30.814 41.6636 30.7393 41.6243 30.6548C41.585 30.5703 41.5646 30.4781 41.5645 30.3848V4.71188C41.5645 4.36071 41.8452 4.07422 42.1922 4.07422H52.9021C54.7054 4.07422 56.2804 4.41846 57.6339 5.10233C59.0103 5.7862 60.0854 6.72191 60.8615 7.91406C61.6376 9.1039 62.0256 10.4971 62.0256 12.0935C62.0256 13.6877 61.6262 15.097 60.825 16.3123C60.0489 17.5021 58.9601 18.4378 57.5586 19.124C56.9322 19.4157 56.2773 19.6403 55.6047 19.794L62.7333 29.6131C62.8096 29.7182 62.8521 29.8446 62.8551 29.975C62.858 30.1055 62.8212 30.2336 62.7496 30.3422C62.6781 30.4507 62.5752 30.5343 62.4551 30.5816C62.335 30.6289 62.2034 30.6376 62.0781 30.6065L56.1891 29.1603C56.0548 29.1285 55.9345 29.053 55.8467 28.9454L48.7661 20.1128H48.2844ZM48.2844 15.2472H51.964C53.0665 15.2472 53.9042 14.9815 54.4794 14.4501C55.0797 13.8933 55.381 13.1447 55.381 12.209C55.381 11.2964 55.0797 10.5617 54.4794 10.0026C53.9042 9.42042 53.0642 9.12932 51.964 9.12932H48.2844V15.2472Z" fill="#E2CCBF"/>
<path d="M79.579 31.5477C78.4493 31.5478 77.3246 31.3947 76.235 31.0925C75.1818 30.7979 74.1626 30.3905 73.1946 29.8773C72.5033 29.4859 71.8571 29.0179 71.2681 28.4818C71.209 28.4265 71.1617 28.3595 71.1289 28.2851C71.0962 28.2107 71.0787 28.1302 71.0777 28.0488C71.0766 27.9673 71.0919 27.8864 71.1227 27.8111C71.1535 27.7359 71.1991 27.6677 71.2567 27.6108L73.9433 24.836C74.0665 24.7153 74.2301 24.646 74.4015 24.6422C74.5729 24.6383 74.7394 24.7001 74.8678 24.8152C75.3608 25.238 75.9178 25.5823 76.5363 25.848C77.3878 26.2038 78.2894 26.3794 79.2389 26.3794C79.7913 26.3794 80.2022 26.3054 80.4784 26.1529C80.7797 26.0005 80.9281 25.7833 80.9281 25.506C80.9281 25.1017 80.7158 24.7968 80.2889 24.5934C79.7813 24.3272 79.2386 24.1358 78.6774 24.0251C77.9851 23.8357 77.2964 23.6331 76.6117 23.4175C75.8796 23.1609 75.1752 22.8296 74.5094 22.4286C73.8224 22.0121 73.2532 21.4232 72.8568 20.7189C72.4574 19.9842 72.2565 19.0462 72.2565 17.9072C72.2565 16.7151 72.5692 15.6777 73.1946 14.7882C73.8452 13.8779 74.7468 13.1686 75.8972 12.6627C77.0499 12.1313 78.4012 11.8633 79.9534 11.8633C81.5284 11.8633 83.0326 12.1405 84.4592 12.6996C85.6713 13.1525 86.8902 14.0281 87.7667 14.9523C87.8229 15.0139 87.8657 15.0869 87.8921 15.1665C87.9185 15.246 87.9281 15.3303 87.9201 15.4138C87.9121 15.4973 87.8868 15.5782 87.8458 15.6512C87.8048 15.7241 87.7491 15.7875 87.6822 15.8371L84.5779 18.2584C84.4478 18.3537 84.2887 18.3997 84.1285 18.3883C83.9682 18.3769 83.8171 18.3088 83.7014 18.196C83.3022 17.8356 82.8301 17.5675 82.3181 17.4105C81.6849 17.1515 81.0106 17.0106 80.3277 16.9946C79.7525 16.9946 79.3394 17.0824 79.0883 17.2603C78.9729 17.3226 78.8769 17.416 78.8108 17.5302C78.7447 17.6444 78.7112 17.7749 78.7139 17.9072C78.7139 18.2353 78.9148 18.501 79.3143 18.7043C79.7411 18.9076 80.2775 19.0971 80.9281 19.275C81.606 19.4274 82.293 19.6284 82.9938 19.8826C83.7197 20.1367 84.409 20.4902 85.0595 20.9454C85.7352 21.3774 86.2739 21.9596 86.6733 22.6943C87.0979 23.429 87.3125 24.3809 87.3125 25.5453C87.3125 27.3936 86.6117 28.863 85.2102 29.9535C83.8064 31.0163 81.9324 31.5477 79.579 31.5477Z" fill="#E2CCBF"/>
<path fill-rule="evenodd" clip-rule="evenodd" d="M92.2175 30.2189C93.7948 31.0275 95.6094 31.4342 97.6615 31.4342C99.289 31.4342 100.743 31.1685 102.017 30.6371C103.102 30.2009 104.089 29.547 104.918 28.7149C104.973 28.6579 105.016 28.5906 105.045 28.5168C105.074 28.4429 105.088 28.364 105.087 28.2846C105.085 28.2051 105.069 28.1267 105.037 28.0539C105.006 27.981 104.961 27.9151 104.904 27.86L102.377 25.3024C102.122 25.0414 101.704 25.0599 101.435 25.3048C101.02 25.6901 100.545 26.0024 100.029 26.2289C99.2799 26.5472 98.4733 26.7023 97.6615 26.684C96.7119 26.684 95.9108 26.4946 95.2602 26.1134C94.6022 25.7256 94.0779 25.1425 93.7583 24.443C93.67 24.2524 93.5938 24.0564 93.53 23.8561L105.922 23.7984C106.062 23.7993 106.197 23.7516 106.305 23.6632C106.414 23.5748 106.489 23.4512 106.518 23.3132C106.575 23.0334 106.615 22.7502 106.637 22.4653C106.685 22.061 106.71 21.6682 106.71 21.287C106.71 19.4895 106.299 17.8931 105.473 16.4999C104.683 15.0925 103.511 13.9448 102.094 13.1938C100.665 12.3851 99.0265 11.9785 97.173 11.9785C95.2716 11.9785 93.5574 12.4082 92.0303 13.27C90.5574 14.079 89.326 15.2734 88.4649 16.7286C87.5884 18.1726 87.1502 19.8315 87.1502 21.7052C87.1502 23.6066 87.5998 25.2909 88.5015 26.7603C89.4065 28.2337 90.6912 29.4294 92.2175 30.2189ZM93.5186 19.5889C93.5757 19.3994 93.6441 19.2192 93.7195 19.0459C94.0113 18.3529 94.4938 17.7594 95.1096 17.3363C95.7099 16.9296 96.4243 16.7286 97.2484 16.7286C98.0495 16.7286 98.7138 16.9042 99.2388 17.26C99.7638 17.6158 100.166 18.1334 100.439 18.8172C100.531 19.0344 100.608 19.2701 100.672 19.5288L93.5186 19.5889Z" fill="#E2CCBF"/>
<path d="M98.9623 9.4746V4.56968H100.195V9.4746H98.9623ZM97.4694 5.60703V4.53502H101.688V5.60703H97.4694ZM101.902 9.4746V4.53271H102.792L104.664 7.39526H104.242L106.109 4.5304H106.997V9.47229H105.778V6.59356L105.97 6.64901L104.849 8.35638H104.05L102.934 6.64901L103.128 6.59356V9.46998H101.902V9.4746ZM9.48005 1.80647C9.48005 1.42988 9.75624 1.11335 10.126 1.06715L14.5588 0.505728C14.6626 0.492664 14.7678 0.502008 14.8678 0.533144C14.9677 0.56428 15.0599 0.6165 15.1384 0.686361C15.2169 0.756222 15.2799 0.842135 15.3232 0.938437C15.3665 1.03474 15.3892 1.13924 15.3897 1.24505V16.0037C15.3897 16.4519 15.0016 16.8008 14.5588 16.743L10.126 16.1839C9.94769 16.1609 9.78375 16.0729 9.66486 15.9364C9.54597 15.7999 9.48027 15.6243 9.48005 15.4423V1.80416V1.80647ZM0.614457 3.67556C0.614457 3.29897 0.890651 2.98245 1.26043 2.93624L5.69322 2.37482C5.79696 2.36175 5.90226 2.3711 6.00217 2.40223C6.10207 2.43337 6.19432 2.48559 6.27284 2.55545C6.35135 2.62531 6.41433 2.71123 6.45764 2.80753C6.50095 2.90383 6.5236 3.00833 6.52409 3.11414V14.8809C6.52409 15.3314 6.13605 15.6779 5.69322 15.6225L1.26043 15.0634C1.08171 15.0403 0.917452 14.952 0.79851 14.815C0.679568 14.678 0.614121 14.5018 0.614457 14.3195V3.67556ZM23.6938 1.75333C23.8539 1.79353 23.9961 1.88677 24.0979 2.01823C24.1996 2.14968 24.255 2.31179 24.2553 2.47879V8.71217C24.255 8.89449 24.189 9.07044 24.0696 9.20698C23.9503 9.34353 23.7858 9.4313 23.607 9.4538L19.1742 10.0152C19.0703 10.0283 18.9648 10.0189 18.8647 9.98764C18.7647 9.95636 18.6723 9.90394 18.5938 9.83383C18.5152 9.76371 18.4523 9.67751 18.4091 9.58093C18.3659 9.48435 18.3435 9.3796 18.3434 9.27359V1.35826C18.3434 0.870767 18.7953 0.514969 19.261 0.632798L23.6938 1.75333ZM32.3813 4.34788C32.3811 4.18089 32.3257 4.01877 32.2239 3.88732C32.1222 3.75587 31.9799 3.66262 31.8198 3.62242L27.387 2.50189C27.2781 2.47455 27.1645 2.47265 27.0548 2.49632C26.9451 2.51999 26.8421 2.56861 26.7537 2.63851C26.6653 2.7084 26.5937 2.79774 26.5445 2.89976C26.4952 3.00178 26.4695 3.1138 26.4694 3.22735V8.89931C26.4694 9.34984 26.8597 9.69639 27.3002 9.64094L31.733 9.07952C31.9114 9.05707 32.0756 8.96964 32.1949 8.83357C32.3142 8.69751 32.3805 8.52212 32.3813 8.3402V4.34788Z" fill="#E2CCBF"/>
<path d="M32.3813 11.9906L17.9759 12.3626C18.0759 13.6848 18.6655 14.9201 19.6266 15.8213C20.5877 16.7226 21.8495 17.2234 23.1596 17.2236H26.4694V20.405L0.614456 17.9721V33.5602L32.3813 31.3169V11.9883V11.9906Z" fill="#E2CCBF"/>
</svg>
