<svg width="42" height="43" viewBox="0 0 42 43" fill="none" xmlns="http://www.w3.org/2000/svg">
<rect y="0.5" width="42" height="42" rx="21" fill="#FBCCD2"/>
<path d="M24.7942 24.1407C25.1451 23.9012 25.5566 23.7658 25.9812 23.7503C26.4057 23.7349 26.826 23.8399 27.1933 24.0533C27.5607 24.2667 27.8601 24.5798 28.057 24.9563C28.2538 25.3328 28.3401 25.7573 28.3057 26.1807C27.4059 26.4953 26.4501 26.6176 25.5 26.54C25.4971 25.69 25.2523 24.8576 24.7942 24.1415C24.3877 23.5038 23.8268 22.979 23.1636 22.6156C22.5004 22.2522 21.7562 22.062 21 22.0625C20.2439 22.0621 19.4999 22.2524 18.8368 22.6158C18.1737 22.9792 17.613 23.5039 17.2065 24.1415M25.4992 26.5392L25.5 26.5625C25.5 26.7312 25.491 26.8978 25.4722 27.062C24.1113 27.8428 22.5691 28.2525 21 28.25C19.3725 28.25 17.8447 27.818 16.5277 27.062C16.5085 26.8884 16.4992 26.7139 16.5 26.5392M16.5 26.5392C15.5502 26.6197 14.5949 26.4978 13.6957 26.1815C13.6615 25.7582 13.7478 25.3338 13.9446 24.9574C14.1414 24.5811 14.4408 24.2681 14.808 24.0547C15.1752 23.8413 15.5953 23.7362 16.0198 23.7516C16.4442 23.767 16.8556 23.9021 17.2065 24.1415M16.5 26.5392C16.5027 25.6893 16.7487 24.8577 17.2065 24.1415M23.25 17.5625C23.25 18.1592 23.0129 18.7315 22.591 19.1535C22.169 19.5754 21.5967 19.8125 21 19.8125C20.4033 19.8125 19.831 19.5754 19.409 19.1535C18.987 18.7315 18.75 18.1592 18.75 17.5625C18.75 16.9658 18.987 16.3935 19.409 15.9715C19.831 15.5496 20.4033 15.3125 21 15.3125C21.5967 15.3125 22.169 15.5496 22.591 15.9715C23.0129 16.3935 23.25 16.9658 23.25 17.5625ZM27.75 19.8125C27.75 20.0341 27.7063 20.2535 27.6215 20.4583C27.5367 20.663 27.4124 20.849 27.2557 21.0057C27.099 21.1624 26.913 21.2867 26.7083 21.3715C26.5035 21.4564 26.2841 21.5 26.0625 21.5C25.8409 21.5 25.6214 21.4564 25.4167 21.3715C25.212 21.2867 25.0259 21.1624 24.8692 21.0057C24.7125 20.849 24.5882 20.663 24.5034 20.4583C24.4186 20.2535 24.375 20.0341 24.375 19.8125C24.375 19.3649 24.5528 18.9357 24.8692 18.6193C25.1857 18.3028 25.6149 18.125 26.0625 18.125C26.51 18.125 26.9393 18.3028 27.2557 18.6193C27.5722 18.9357 27.75 19.3649 27.75 19.8125ZM17.625 19.8125C17.625 20.0341 17.5813 20.2535 17.4965 20.4583C17.4117 20.663 17.2874 20.849 17.1307 21.0057C16.974 21.1624 16.788 21.2867 16.5833 21.3715C16.3785 21.4564 16.1591 21.5 15.9375 21.5C15.7159 21.5 15.4964 21.4564 15.2917 21.3715C15.087 21.2867 14.9009 21.1624 14.7442 21.0057C14.5875 20.849 14.4632 20.663 14.3784 20.4583C14.2936 20.2535 14.25 20.0341 14.25 19.8125C14.25 19.3649 14.4278 18.9357 14.7442 18.6193C15.0607 18.3028 15.4899 18.125 15.9375 18.125C16.385 18.125 16.8143 18.3028 17.1307 18.6193C17.4472 18.9357 17.625 19.3649 17.625 19.8125Z" stroke="#131313" stroke-width="1.4" stroke-linecap="round" stroke-linejoin="round"/>
</svg>
