<svg width="280" height="15" viewBox="0 0 280 15" fill="none" xmlns="http://www.w3.org/2000/svg">
<path d="M0.564514 14.5001C23.6453 9.72559 46.8927 6.33542 70.1955 4.04705L87.6831 2.54031L105.191 1.44792L122.714 0.798139L140.236 0.515625L157.765 0.694551L175.287 1.24075L192.796 2.23896C198.632 2.67215 204.461 3.15243 210.29 3.64212C233.6 5.78923 256.854 9.04756 279.949 13.6996C256.688 10.9969 233.42 8.77446 210.138 7.3148C204.315 7.02287 198.493 6.71211 192.671 6.36367L175.197 5.70447L157.724 5.29953L140.243 5.2242L122.769 5.39371L105.296 5.89282L87.8219 6.6556L70.3551 7.71032C47.0731 9.29241 23.8188 11.6561 0.564514 14.5001Z" fill="#FBCCD2"/>
</svg>
